<svg xmlns="http://www.w3.org/2000/svg" width="33" height="24" viewBox="0 0 33 24">
  <g id="ic-cloud-arrow-up-fill" transform="translate(-4310 -4485)">
    <path id="ic-cloud-arrow-up-fill-2" data-name="ic-cloud-arrow-up-fill" d="M13.176,2a9.108,9.108,0,0,0-5.92,2.21A6.926,6.926,0,0,0,4.845,8.135,6.053,6.053,0,0,0,6.227,20.116H20.9a5.308,5.308,0,0,0,.789-10.575A8.458,8.458,0,0,0,13.176,2m3.877,8.475a.825.825,0,1,1-1.166,1.166L14,9.752V16a.823.823,0,0,1-1.647,0V9.752l-1.887,1.889A.825.825,0,0,1,9.3,10.475l3.294-3.294a.823.823,0,0,1,1.166,0Z" transform="translate(4309.996 4486)" fill="#8cc42a"/>
    <rect id="Rectangle_937" data-name="Rectangle 937" width="33" height="24" transform="translate(4310 4485)" fill="none"/>
  </g>
</svg>
