<svg id="login-bg-mobile-top" xmlns="http://www.w3.org/2000/svg" xmlns:xlink="http://www.w3.org/1999/xlink" width="1060.94" height="270.686" viewBox="0 0 1060.94 270.686">
  <defs>
    <clipPath id="clip-path">
      <rect id="Rectangle_942" data-name="Rectangle 942" width="1060.94" height="270.686" fill="none"/>
    </clipPath>
    <clipPath id="clip-path-2">
      <rect id="Rectangle_941" data-name="Rectangle 941" width="1060.941" height="270.686" fill="none"/>
    </clipPath>
  </defs>
  <g id="Group_1007" data-name="Group 1007" clip-path="url(#clip-path)">
    <g id="Group_1006" data-name="Group 1006">
      <g id="Group_1005" data-name="Group 1005" clip-path="url(#clip-path-2)">
        <g id="Group_1004" data-name="Group 1004" opacity="0.21">
          <g id="Group_1003" data-name="Group 1003">
            <g id="Group_1002" data-name="Group 1002" clip-path="url(#clip-path)">
              <path id="Path_3071" data-name="Path 3071" d="M97.548,35.042A55.774,55.774,0,0,1,95.836,50.7,27.511,27.511,0,0,1,89.5,62.425a29.134,29.134,0,0,1-11.208,7.358A43.964,43.964,0,0,1,62.636,72.35H27.381v54.763H0V2.014H27.381v7.7a16.849,16.849,0,0,1,6.076-5.562,17.148,17.148,0,0,1,8.471-2.139H66.572A29.96,29.96,0,0,1,80.433,5.009a28.7,28.7,0,0,1,9.755,8.128,34.212,34.212,0,0,1,5.306,10.1,40.8,40.8,0,0,1,2.054,11.808M68.454,28.026q-1.371-8.382-7.187-13.006-4.794-3.764-12.323-3.765H27.381V62.767H50.828a17.4,17.4,0,0,0,6.674-1.2,19.509,19.509,0,0,0,5.305-3.251,20.762,20.762,0,0,0,5.305-9.242,40.5,40.5,0,0,0,1.112-10.438,87.971,87.971,0,0,0-.77-10.611" fill="#dee35e"/>
              <path id="Path_3072" data-name="Path 3072" d="M213.918,104.181a32.488,32.488,0,0,1-6.5,10.953,33.646,33.646,0,0,1-13.949,9.327,71.423,71.423,0,0,1-18.054,3.85q-6.505.683-13.264.77a92.618,92.618,0,0,1-13.262-.77,45.5,45.5,0,0,1-16.515-4.791,43.686,43.686,0,0,1-12.065-9.242,35.994,35.994,0,0,1-6.76-11.637,41.639,41.639,0,0,1-2.31-14.033V1.842h27.9V91.86a34.879,34.879,0,0,0,1.284,9.84,26.706,26.706,0,0,0,3.508,7.615,22.844,22.844,0,0,0,9.327,8.044,23.882,23.882,0,0,0,11.552,2.224,26,26,0,0,0,10.438-2.909,22.919,22.919,0,0,0,8.386-7.529q4.79-6.844,4.792-17.285V1.842h27.895V88.608a45.15,45.15,0,0,1-2.4,15.573" fill="#dee35e"/>
              <path id="Path_3073" data-name="Path 3073" d="M339.188,100.93a36.444,36.444,0,0,1-3.167,10.267,25.141,25.141,0,0,1-6.588,8.386q-8.559,7.535-23.788,7.53H272.274a11.461,11.461,0,0,1-7.359-2.31,17.34,17.34,0,0,1-4.792-6.247v8.728H232.4V2.014h27.724V10.4A15.1,15.1,0,0,1,265.6,3.982a11.992,11.992,0,0,1,6.162-1.968H297.6a50.384,50.384,0,0,1,11.38,1.369A38.7,38.7,0,0,1,319.85,7.662a30.053,30.053,0,0,1,6.588,5.647,21.035,21.035,0,0,1,4.192,7.7A36.363,36.363,0,0,1,332.514,32.9,33.6,33.6,0,0,1,330.46,44.8a24.753,24.753,0,0,1-5.9,9.327,21.507,21.507,0,0,1-10.525,5.562,42.309,42.309,0,0,1,6.418,1.54,30.767,30.767,0,0,1,6.075,2.739,22.121,22.121,0,0,1,6.931,5.9A31.694,31.694,0,0,1,337.819,78a37.232,37.232,0,0,1,2.139,11.3,51.462,51.462,0,0,1-.77,11.637m-36.794-75.3A15.091,15.091,0,0,0,297,15.448q-4.536-3.678-12.065-3.679H260.123V56.093h27.724a12.709,12.709,0,0,0,9.327-3.851,19.262,19.262,0,0,0,5.048-10.525,41.347,41.347,0,0,0,.6-8.386q-.089-4.788-.427-7.7m8.214,70.85a49.634,49.634,0,0,0-.256-9.412,40,40,0,0,0-2.14-9.755,16.541,16.541,0,0,0-6.16-7.786q-4.453-3.165-11.466-3.166H260.123v50.827h25.671a47.143,47.143,0,0,0,10.952-1.113,17.517,17.517,0,0,0,7.7-3.851,15.67,15.67,0,0,0,4.279-6.844,35.453,35.453,0,0,0,1.882-8.9" fill="#dee35e"/>
              <path id="Path_3074" data-name="Path 3074" d="M369.479,127.114a15.789,15.789,0,0,1-6.846-1.54,20.716,20.716,0,0,1-5.819-4.107,19.461,19.461,0,0,1-3.507-5.221A14.888,14.888,0,0,1,352.023,110V2.015h27.552V106.749a10.181,10.181,0,0,0,2.654,7.273,8.666,8.666,0,0,0,6.588,2.824h49.458v10.268Z" fill="#dee35e"/>
              <rect id="Rectangle_938" data-name="Rectangle 938" width="28.75" height="125.441" transform="translate(459.837 1.843)" fill="#dee35e"/>
              <path id="Path_3075" data-name="Path 3075" d="M598.455,47.536q-.172-6.328-.428-12.579a36.837,36.837,0,0,0-2.651-12.235,20.389,20.389,0,0,0-5.049-7.189,23.646,23.646,0,0,0-17.542-6.16,23.809,23.809,0,0,0-9.926,2.739,28.247,28.247,0,0,0-10.1,9.5,63.567,63.567,0,0,0-6.5,13.263,73.354,73.354,0,0,0-4.28,19.51,123.092,123.092,0,0,0,0,20.535,41.51,41.51,0,0,0,5.477,16.772,33.21,33.21,0,0,0,12.321,12.492,36.46,36.46,0,0,0,12.665,4.45,52.225,52.225,0,0,0,13.348.342,72.709,72.709,0,0,0,12.664-2.31,39.652,39.652,0,0,0,11.81-5.22,48.5,48.5,0,0,0,10.01-8.813,103.148,103.148,0,0,0,7.958-10.353l1.37.342a59.083,59.083,0,0,1-4.108,15.06,55.812,55.812,0,0,1-8.043,13.519,39.43,39.43,0,0,1-8.728,8.215,63.555,63.555,0,0,1-10.269,5.647A59.042,59.042,0,0,1,583.738,129a75.037,75.037,0,0,1-15.232.172,90.387,90.387,0,0,1-17.968-3.509,54.222,54.222,0,0,1-16.087-7.958,47.291,47.291,0,0,1-13.862-15.573,58.051,58.051,0,0,1-6.5-19.851,114.231,114.231,0,0,1-.856-23.959,82.634,82.634,0,0,1,3.936-20.365,61.21,61.21,0,0,1,7.53-14.8,46.215,46.215,0,0,1,10.782-11.038A58.15,58.15,0,0,1,549.6,4.325a62.451,62.451,0,0,1,16-3.68A87.358,87.358,0,0,1,585.279.474a58.335,58.335,0,0,1,18.994,5.3A42.4,42.4,0,0,1,624.81,25.63a52.487,52.487,0,0,1,5.134,21.906Z" fill="#dee35e"/>
              <path id="Path_3076" data-name="Path 3076" d="M304.769,235.924a28.222,28.222,0,0,1-.931,11.663,28.89,28.89,0,0,1-4.937,9.374,32.171,32.171,0,0,1-9.3,7.727,42.8,42.8,0,0,1-12.736,4.58,80.075,80.075,0,0,1-12.237,1.359,100.011,100.011,0,0,1-12.521-.358q-4.152-.429-7.944-1.144a43.585,43.585,0,0,1-7.226-2,32.818,32.818,0,0,1-14.884-11.164,35.688,35.688,0,0,1-6.867-20.034h25.471a80.919,80.919,0,0,0,.429,8.3,30.652,30.652,0,0,0,1.861,7.871,20.633,20.633,0,0,0,3.435,5.653,13.2,13.2,0,0,0,5.868,3.793,27.918,27.918,0,0,0,7.155,1.43,21.429,21.429,0,0,0,7.442-.715,18.65,18.65,0,0,0,5.867-2.433,15.614,15.614,0,0,0,4.579-4.437,17.488,17.488,0,0,0,2.863-11.448,22.409,22.409,0,0,0-1.145-5.653,13.787,13.787,0,0,0-2.434-4.222q-2.575-3-9.016-5.009-2.289-.714-5.152-1.573t-5.795-1.718q-2.934-.858-5.652-1.574T246.1,222.9a48.857,48.857,0,0,1-9.876-3.936,32.53,32.53,0,0,1-8.3-6.225,30.833,30.833,0,0,1-4.795-7.012,26.018,26.018,0,0,1-2.5-8.586q-1.29-12.451,7.727-22.039a31.012,31.012,0,0,1,9.876-7.441,44.312,44.312,0,0,1,11.876-3.435,70.159,70.159,0,0,1,14.884-.715,59.608,59.608,0,0,1,14.454,2.575,47.309,47.309,0,0,1,10.519,4.723,24.191,24.191,0,0,1,7.8,7.871,33.723,33.723,0,0,1,3.649,8.586,45.571,45.571,0,0,1,1.645,9.016H277.721q-.144-3.72-.5-7.513a55.049,55.049,0,0,0-1.074-6.941,10.68,10.68,0,0,0-3.292-5.938,16.742,16.742,0,0,0-5.868-3.507,18.594,18.594,0,0,0-12.451-.286,13.013,13.013,0,0,0-6.726,4.722,17.432,17.432,0,0,0-3.291,7.585,17.228,17.228,0,0,0,.073,5.653,14.054,14.054,0,0,0,2.075,5.224,12.657,12.657,0,0,0,5.151,4.507,34.841,34.841,0,0,0,6.584,2.361q4.293,1,9.372,2.29t9.8,2.719a73.081,73.081,0,0,1,10.375,3.864,30.482,30.482,0,0,1,8.8,6.154,24.214,24.214,0,0,1,5.654,8.586,40.6,40.6,0,0,1,2.361,10.161" fill="#dee35e"/>
              <path id="Path_3077" data-name="Path 3077" d="M332.676,269.268a14.94,14.94,0,0,1-12.022-5.725,17.449,17.449,0,0,1-4.007-11.448V164.657h23.469v6.153a14.625,14.625,0,0,1,5.011-4.508,13.494,13.494,0,0,1,6.582-1.645h46.225v8.3H340.116v37.064h53.81v8.158h-53.81v33.63a9.5,9.5,0,0,0,2.434,6.3,7.579,7.579,0,0,0,6.009,2.862h50.089v8.3Z" fill="#dee35e"/>
              <path id="Path_3078" data-name="Path 3078" d="M467.2,269.411l-49.372-93.878v93.878h-8.015V164.657H437.43l48.512,91.159V164.657h8.014V269.411Z" fill="#dee35e"/>
              <path id="Path_3079" data-name="Path 3079" d="M561.787,172.957v96.311H538.03V172.957h-35.2v-8.3h94.451v8.3Z" fill="#dee35e"/>
              <rect id="Rectangle_939" data-name="Rectangle 939" width="24.042" height="104.897" transform="translate(613.878 164.513)" fill="#dee35e"/>
              <path id="Path_3080" data-name="Path 3080" d="M744.39,269.268V183.117l-35.347,86.008h-2l-39.785-86.008v86.151h-8.3V164.513h24.472l31.484,68.4,28.334-68.4h23.9V269.268Z" fill="#dee35e"/>
              <path id="Path_3081" data-name="Path 3081" d="M796.337,269.268a14.94,14.94,0,0,1-12.022-5.725,17.449,17.449,0,0,1-4.007-11.448V164.657h23.469v6.153a14.625,14.625,0,0,1,5.011-4.508,13.494,13.494,0,0,1,6.582-1.645h46.225v8.3H803.777v37.064h53.81v8.158h-53.81v33.63a9.5,9.5,0,0,0,2.434,6.3,7.579,7.579,0,0,0,6.009,2.862h50.088v8.3Z" fill="#dee35e"/>
              <path id="Path_3082" data-name="Path 3082" d="M930.857,269.411l-49.372-93.878v93.878H873.47V164.657h27.621L949.6,255.816V164.657h8.014V269.411Z" fill="#dee35e"/>
              <path id="Path_3083" data-name="Path 3083" d="M1025.45,172.957v96.311h-23.757V172.957h-35.2v-8.3h94.451v8.3Z" fill="#dee35e"/>
            </g>
          </g>
        </g>
      </g>
    </g>
  </g>
</svg>
